<?xml version="1.0" encoding="UTF-8" standalone="no"?>
<svg
   xmlns:dc="http://purl.org/dc/elements/1.1/"
   xmlns:cc="http://creativecommons.org/ns#"
   xmlns:rdf="http://www.w3.org/1999/02/22-rdf-syntax-ns#"
   xmlns:svg="http://www.w3.org/2000/svg"
   xmlns="http://www.w3.org/2000/svg"
   xmlns:sodipodi="http://sodipodi.sourceforge.net/DTD/sodipodi-0.dtd"
   xmlns:inkscape="http://www.inkscape.org/namespaces/inkscape"
   width="1000"
   height="179.67599"
   viewBox="0 0 264.58333 47.539275"
   version="1.1"
   id="svg976"
   sodipodi:docname="Timberland.svg"
   inkscape:version="0.92.2 (5c3e80d, 2017-08-06)">
  <defs
     id="defs970">
    <clipPath
       id="clipPath1537"
       clipPathUnits="userSpaceOnUse">
      <path
         inkscape:connector-curvature="0"
         id="path1535"
         d="M 0,841.89 H 595.275 V 0 H 0 Z" />
    </clipPath>
    <clipPath
       id="clipPath1543"
       clipPathUnits="userSpaceOnUse">
      <path
         inkscape:connector-curvature="0"
         id="path1541"
         d="M 0.029999,841.95 H 595.29 V 0.03 H 0.029999 Z" />
    </clipPath>
    <clipPath
       id="clipPath1565"
       clipPathUnits="userSpaceOnUse">
      <path
         inkscape:connector-curvature="0"
         id="path1563"
         d="M 558.06,85.04 H 363.037 V 53.542 H 558.06 Z" />
    </clipPath>
    <clipPath
       id="clipPath1713"
       clipPathUnits="userSpaceOnUse">
      <path
         inkscape:connector-curvature="0"
         id="path1711"
         d="M 0,841.89 H 595.275 V 0 H 0 Z" />
    </clipPath>
    <clipPath
       id="clipPath1719"
       clipPathUnits="userSpaceOnUse">
      <path
         inkscape:connector-curvature="0"
         id="path1717"
         d="M 0.029999,841.95 H 595.29 V 0.03 H 0.029999 Z" />
    </clipPath>
    <clipPath
       id="clipPath1745"
       clipPathUnits="userSpaceOnUse">
      <path
         inkscape:connector-curvature="0"
         id="path1743"
         d="M 558.06,85.04 H 363.037 V 53.542 H 558.06 Z" />
    </clipPath>
    <clipPath
       id="clipPath1893"
       clipPathUnits="userSpaceOnUse">
      <path
         inkscape:connector-curvature="0"
         id="path1891"
         d="M 0,841.89 H 595.275 V 0 H 0 Z" />
    </clipPath>
    <clipPath
       id="clipPath1899"
       clipPathUnits="userSpaceOnUse">
      <path
         inkscape:connector-curvature="0"
         id="path1897"
         d="M 0.029999,841.95 H 595.29 V 0.03 H 0.029999 Z" />
    </clipPath>
    <clipPath
       id="clipPath1949"
       clipPathUnits="userSpaceOnUse">
      <path
         style="clip-rule:evenodd"
         inkscape:connector-curvature="0"
         id="path1947"
         d="m 155.887,338.28 c 0,-32.859 -26.668,-59.527 -59.527,-59.527 -32.859,0 -59.527,26.668 -59.527,59.527 0,32.859 26.668,59.527 59.527,59.527 32.859,0 59.527,-26.668 59.527,-59.527" />
    </clipPath>
    <clipPath
       id="clipPath1955"
       clipPathUnits="userSpaceOnUse">
      <path
         inkscape:connector-curvature="0"
         id="path1953"
         d="M 0,841.89 H 595.275 V 0 H 0 Z" />
    </clipPath>
    <clipPath
       id="clipPath1961"
       clipPathUnits="userSpaceOnUse">
      <path
         inkscape:connector-curvature="0"
         id="path1959"
         d="M 0.029999,841.95 H 595.29 V 0.03 H 0.029999 Z" />
    </clipPath>
    <clipPath
       id="clipPath1973"
       clipPathUnits="userSpaceOnUse">
      <path
         inkscape:connector-curvature="0"
         id="path1971"
         d="M 0,841.89 H 595.275 V 0 H 0 Z" />
    </clipPath>
    <clipPath
       id="clipPath1979"
       clipPathUnits="userSpaceOnUse">
      <path
         inkscape:connector-curvature="0"
         id="path1977"
         d="M 0.029999,841.95 H 595.29 V 0.03 H 0.029999 Z" />
    </clipPath>
    <clipPath
       id="clipPath1995"
       clipPathUnits="userSpaceOnUse">
      <path
         style="clip-rule:evenodd"
         inkscape:connector-curvature="0"
         id="path1993"
         d="m 272.113,653.4 c 0,-43.03 -34.923,-77.953 -77.953,-77.953 -43.03,0 -77.953,34.923 -77.953,77.953 0,43.03 34.923,77.953 77.953,77.953 43.03,0 77.953,-34.923 77.953,-77.953" />
    </clipPath>
    <clipPath
       id="clipPath2001"
       clipPathUnits="userSpaceOnUse">
      <path
         inkscape:connector-curvature="0"
         id="path1999"
         d="M 0,841.89 H 595.275 V 0 H 0 Z" />
    </clipPath>
    <clipPath
       id="clipPath2007"
       clipPathUnits="userSpaceOnUse">
      <path
         inkscape:connector-curvature="0"
         id="path2005"
         d="M 0.029999,841.95 H 595.29 V 0.03 H 0.029999 Z" />
    </clipPath>
    <clipPath
       id="clipPath2019"
       clipPathUnits="userSpaceOnUse">
      <path
         inkscape:connector-curvature="0"
         id="path2017"
         d="M 0,841.89 H 595.275 V 0 H 0 Z" />
    </clipPath>
    <clipPath
       id="clipPath2025"
       clipPathUnits="userSpaceOnUse">
      <path
         inkscape:connector-curvature="0"
         id="path2023"
         d="M 0.029999,841.95 H 595.29 V 0.03 H 0.029999 Z" />
    </clipPath>
    <clipPath
       id="clipPath2045"
       clipPathUnits="userSpaceOnUse">
      <path
         style="clip-rule:evenodd"
         inkscape:connector-curvature="0"
         id="path2043"
         d="m 496.958,624.78 c 0,-32.859 -26.669,-59.527 -59.528,-59.527 -32.859,0 -59.528,26.668 -59.528,59.527 0,32.859 26.669,59.527 59.528,59.527 32.859,0 59.528,-26.668 59.528,-59.527" />
    </clipPath>
    <clipPath
       id="clipPath2051"
       clipPathUnits="userSpaceOnUse">
      <path
         inkscape:connector-curvature="0"
         id="path2049"
         d="M 0,841.89 H 595.275 V 0 H 0 Z" />
    </clipPath>
    <clipPath
       id="clipPath2057"
       clipPathUnits="userSpaceOnUse">
      <path
         inkscape:connector-curvature="0"
         id="path2055"
         d="M 0.029999,841.95 H 595.29 V 0.03 H 0.029999 Z" />
    </clipPath>
    <clipPath
       id="clipPath2069"
       clipPathUnits="userSpaceOnUse">
      <path
         inkscape:connector-curvature="0"
         id="path2067"
         d="M 0,841.89 H 595.275 V 0 H 0 Z" />
    </clipPath>
    <clipPath
       id="clipPath2075"
       clipPathUnits="userSpaceOnUse">
      <path
         inkscape:connector-curvature="0"
         id="path2073"
         d="M 0.029999,841.95 H 595.29 V 0.03 H 0.029999 Z" />
    </clipPath>
    <clipPath
       id="clipPath2093"
       clipPathUnits="userSpaceOnUse">
      <path
         style="clip-rule:evenodd"
         inkscape:connector-curvature="0"
         id="path2091"
         d="m 511.928,421.02 c 0,-32.859 -26.669,-59.527 -59.528,-59.527 -32.859,0 -59.528,26.668 -59.528,59.527 0,32.859 26.669,59.527 59.528,59.527 32.859,0 59.528,-26.668 59.528,-59.527" />
    </clipPath>
    <clipPath
       id="clipPath2099"
       clipPathUnits="userSpaceOnUse">
      <path
         inkscape:connector-curvature="0"
         id="path2097"
         d="M 0,841.89 H 595.275 V 0 H 0 Z" />
    </clipPath>
    <clipPath
       id="clipPath2105"
       clipPathUnits="userSpaceOnUse">
      <path
         inkscape:connector-curvature="0"
         id="path2103"
         d="M 0.029999,841.95 H 595.29 V 0.03 H 0.029999 Z" />
    </clipPath>
    <clipPath
       id="clipPath2117"
       clipPathUnits="userSpaceOnUse">
      <path
         inkscape:connector-curvature="0"
         id="path2115"
         d="M 0,841.89 H 595.275 V 0 H 0 Z" />
    </clipPath>
    <clipPath
       id="clipPath2123"
       clipPathUnits="userSpaceOnUse">
      <path
         inkscape:connector-curvature="0"
         id="path2121"
         d="M 0.029999,841.95 H 595.29 V 0.03 H 0.029999 Z" />
    </clipPath>
    <clipPath
       id="clipPath2141"
       clipPathUnits="userSpaceOnUse">
      <path
         style="clip-rule:evenodd"
         inkscape:connector-curvature="0"
         id="path2139"
         d="m 324.128,443.88 c 0,-32.859 -26.669,-59.527 -59.528,-59.527 -32.859,0 -59.528,26.668 -59.528,59.527 0,32.859 26.669,59.527 59.528,59.527 32.859,0 59.528,-26.668 59.528,-59.527" />
    </clipPath>
    <clipPath
       id="clipPath2147"
       clipPathUnits="userSpaceOnUse">
      <path
         inkscape:connector-curvature="0"
         id="path2145"
         d="M 0,841.89 H 595.275 V 0 H 0 Z" />
    </clipPath>
    <clipPath
       id="clipPath2153"
       clipPathUnits="userSpaceOnUse">
      <path
         inkscape:connector-curvature="0"
         id="path2151"
         d="M 0.029999,841.95 H 595.29 V 0.03 H 0.029999 Z" />
    </clipPath>
    <clipPath
       id="clipPath2165"
       clipPathUnits="userSpaceOnUse">
      <path
         inkscape:connector-curvature="0"
         id="path2163"
         d="M 0,841.89 H 595.275 V 0 H 0 Z" />
    </clipPath>
    <clipPath
       id="clipPath2171"
       clipPathUnits="userSpaceOnUse">
      <path
         inkscape:connector-curvature="0"
         id="path2169"
         d="M 0.029999,841.95 H 595.29 V 0.03 H 0.029999 Z" />
    </clipPath>
    <clipPath
       id="clipPath1745-3"
       clipPathUnits="userSpaceOnUse">
      <path
         inkscape:connector-curvature="0"
         id="path1743-6"
         d="M 558.06,85.04 H 363.037 V 53.542 H 558.06 Z" />
    </clipPath>
  </defs>
  <sodipodi:namedview
     id="base"
     pagecolor="#ffffff"
     bordercolor="#666666"
     borderopacity="1.0"
     inkscape:pageopacity="0.0"
     inkscape:pageshadow="2"
     inkscape:zoom="0.49497475"
     inkscape:cx="523.5824"
     inkscape:cy="369.06966"
     inkscape:document-units="px"
     inkscape:current-layer="layer1"
     showgrid="false"
     units="px"
     inkscape:window-width="1360"
     inkscape:window-height="706"
     inkscape:window-x="-8"
     inkscape:window-y="-8"
     inkscape:window-maximized="1" />
  <metadata
     id="metadata973">
    <rdf:RDF>
      <cc:Work
         rdf:about="">
        <dc:format>image/svg+xml</dc:format>
        <dc:type
           rdf:resource="http://purl.org/dc/dcmitype/StillImage" />
        <dc:title></dc:title>
      </cc:Work>
    </rdf:RDF>
  </metadata>
  <g
     inkscape:label="Layer 1"
     inkscape:groupmode="layer"
     id="layer1"
     transform="translate(0,-249.46072)">
    <g
       style="fill:#FFFFFF"
       clip-path="none"
       id="g3912"
       transform="matrix(1.9137986,0,0,-1.9137986,-101.33755,1643.9314)">
      <g
         style="fill:#FFFFFF"
         transform="translate(151.4405,725.5009)"
         id="g3918" />
      <g
         style="fill:#FFFFFF"
         transform="translate(67.6139,727.5388)"
         id="g3922">
        <path
           inkscape:connector-curvature="0"
           id="path3924"
           style="fill:#FFFFFF;fill-opacity:1;fill-rule:nonzero;stroke:none"
           d="M 0,0 C 0.505,-1.939 0.949,-3.897 1.313,-5.897 1.373,-6.3 1.232,-6.583 0.989,-6.846 0.787,-7.088 0.545,-7.189 0.262,-7.229 c -0.403,0 -0.767,0.121 -1.049,0.443 -0.849,1.252 -1.111,2.747 -2.141,3.878 -0.262,0.202 -0.626,0.343 -0.949,0.182 l -0.242,-0.242 0.181,-18.074 c 0.081,-0.566 0.606,-1.031 1.151,-1.131 0.444,0.121 0.788,0.585 0.869,1.01 l 0.06,1.01 -0.101,8.804 c -0.161,0.646 -1.009,0.666 -1.131,1.272 0.101,0.343 0.485,0.586 0.788,0.727 1.151,0.505 2.363,0.828 3.473,1.414 0.344,0.02 0.768,0.081 1.071,-0.101 L 2.443,-8.32 2.565,-20.961 c 0.101,-0.425 0.222,-1.011 0.767,-1.112 0.222,-0.181 0.162,-0.504 0.041,-0.726 -0.263,-0.404 -0.748,-0.425 -1.131,-0.465 h -4.201 c -0.343,-0.02 -0.606,0.203 -0.848,0.424 -0.909,-0.707 -2.464,-0.424 -3.514,-0.485 -1.232,0.142 -2.766,-0.343 -3.857,0.405 -0.182,0.141 -0.141,0.423 -0.121,0.585 0.202,0.404 0.808,0.262 0.929,0.768 l 0.182,0.565 -0.061,13.732 -0.081,4.302 c -0.141,0.201 -0.363,0.303 -0.626,0.282 -0.464,-0.04 -0.747,-0.525 -0.989,-0.868 -0.545,-0.97 -0.909,-2.04 -1.394,-3.029 -0.161,-0.344 -0.444,-0.566 -0.787,-0.707 -0.485,-0.162 -0.949,0.04 -1.272,0.384 -0.566,0.706 -0.061,1.635 0,2.403 l 0.949,4.362 c 0.121,0.222 0.242,0.524 0.505,0.585 0.767,0.283 0.929,-0.787 1.655,-0.585 l 9.411,0.081 c 0.565,0.039 0.909,0.928 1.575,0.504 z" />
      </g>
      <g
         style="fill:#FFFFFF"
         transform="translate(125.2684,727.2962)"
         id="g3926">
        <path
           inkscape:connector-curvature="0"
           id="path3928"
           style="fill:#FFFFFF;fill-opacity:1;fill-rule:nonzero;stroke:none"
           d="m 0,0 0.202,-0.282 0.061,-2.989 0.141,-17.347 c 0.081,-0.485 0.263,-0.969 0.788,-1.192 0.161,-0.182 0.161,-0.484 0.1,-0.727 -0.221,-0.585 -0.868,-0.666 -1.433,-0.666 l -3.938,0.02 c -0.323,0.061 -0.687,0.183 -0.869,0.505 -0.141,0.242 -0.141,0.546 -0.02,0.808 0.404,0.263 0.849,0.525 0.889,1.07 l -0.02,8.078 c -0.061,0.666 0.02,1.616 -0.061,2.241 -0.303,-0.727 0.041,-1.757 -0.767,-2.18 -0.344,-0.142 -0.707,0 -0.99,0.161 -0.363,0.343 -0.525,0.808 -0.646,1.272 -0.222,0.222 -0.525,0.061 -0.747,-0.04 -3.07,-2.181 -1.737,-6.402 -1.999,-9.694 -0.041,-0.666 0.828,-0.424 0.908,-1.03 0,-0.282 -0.121,-0.525 -0.282,-0.726 -0.283,-0.282 -0.748,-0.264 -1.112,-0.303 l -4.341,0.039 c -0.282,0.062 -0.525,0.284 -0.626,0.546 -0.081,0.202 -0.081,0.485 0.081,0.667 0.263,0.263 0.727,0.201 0.848,0.626 l 0.02,0.989 -0.08,9.108 c -0.041,0.768 -1.192,0.707 -1.091,1.535 l 0.545,0.484 c 1.252,0.546 2.565,0.95 3.797,1.515 0.464,0.061 0.929,0.061 1.191,-0.363 0.121,-0.667 -0.061,-1.455 0.142,-2.181 0.04,-0.081 0.161,-0.041 0.221,-0.021 0.768,1.172 1.758,2.545 3.292,2.444 0.586,-0.041 1.253,-0.081 1.575,-0.626 l 0.081,0.182 -0.06,3.413 -0.041,0.02 c 0.061,0.323 -0.02,0.746 -0.08,1.11 0.04,0.747 -1.152,0.788 -0.788,1.596 1.091,1.272 2.908,1.151 4.18,2.14 C -0.585,0.283 -0.242,0.182 0,0" />
      </g>
      <g
         style="fill:#FFFFFF"
         transform="translate(189.6274,717.8857)"
         id="g3930">
        <path
           inkscape:connector-curvature="0"
           id="path3932"
           style="fill:#FFFFFF;fill-opacity:1;fill-rule:nonzero;stroke:none"
           d="m 0,0 -1.07,-0.303 c 0.283,-0.565 0.929,-1.696 0.929,-1.696 L -1.434,-2.04 -2.585,-0.666 C -3.15,-0.787 -4.434,-1.075 -4.434,-1.075 l 0.517,-0.965 -0.931,-0.11 -0.725,0.939 c 0,0 -2.646,-0.768 -3.939,-1.172 l -0.081,-0.121 c 0.021,-1.454 0.122,-2.888 0.283,-4.281 l 0.122,-0.303 c 2.464,-0.465 4.947,-0.585 7.553,-0.727 l 0.242,0.101 c 0.707,1.01 1.11,2.14 1.494,3.292 C 0.505,-3.09 0.605,-1.252 0,0 m -21.325,0.606 c -0.182,-0.404 -0.161,-0.989 -0.121,-1.413 0.242,0.383 0.821,1.148 0.821,1.148 z m 7.249,0.061 -3.028,-2.485 -1.455,-0.06 c 0,0 0.588,0.66 0.791,1.023 -0.525,0.243 -1.114,0.492 -1.659,0.653 l -1.07,-1.433 c -0.343,-0.041 -0.727,0 -0.989,-0.122 -0.081,-1.191 0.181,-2.302 0.403,-3.412 0.101,-0.283 0.182,-0.768 0.606,-0.727 2.989,0 5.795,-0.465 8.745,-0.768 v 4.524 c -0.142,0.303 -0.535,0.847 -0.737,1.089 l -1.365,-0.807 -2.503,-0.02 c -0.021,0.041 2.06,1.192 3.009,1.818 -0.263,0.262 -0.424,0.565 -0.748,0.727 m 6.786,0.303 -0.889,-1.455 1.011,0.094 0.903,1.49 z m -14.352,1.085 1.667,-0.773 0.522,0.866 z m 3.947,0.289 -0.945,-1.455 1.921,-0.743 1.593,1.389 -0.605,0.646 z m 7.013,0.12 -0.675,-0.328 0.041,-0.935 0.553,-0.191 z m -2.464,0.989 -0.546,-1.09 1.05,-1.192 c -0.141,0.788 -0.303,1.535 -0.504,2.282 m 3.796,-0.302 0.101,-2.343 1.757,2.241 c 0.158,0.167 0.211,0.469 0.211,0.469 L -7.616,4.575 Z M -4.312,4.64 -5.128,4.544 -6.412,2.515 -5.581,2.539 Z m -10.551,0.952 0.081,-2.28 0.869,1.979 z m 6.613,0.536 -0.564,-0.375 0.119,-0.42 0.516,0.479 z m -9.844,0.577 V 6.624 c 0.646,-0.646 1.94,-2.09 1.94,-2.09 v 1.627 z m 3.17,1.474 V 6.947 l 0.606,-0.142 c -0.14,0.486 -0.384,0.929 -0.606,1.374 m 3.777,0.141 -1.297,-2.459 0.772,-2.529 1.132,0.795 0.302,2.113 c -0.303,0.707 -0.586,1.434 -0.909,2.08 m 1.817,-1.171 0.667,0.142 c 0,0 -1.01,2.261 -1.434,3.412 0.364,0.021 0.707,0 1.03,-0.081 0.506,-0.854 1.413,-2.544 1.413,-2.544 0,0 1.575,0.889 2.383,1.313 0.243,-0.041 0.486,-0.202 0.667,-0.384 L -7.023,6.862 -6.314,4.859 c 0,0 1.71,2.411 2.558,3.562 C -3.454,8.381 -3.21,8.118 -3.029,7.896 -3.371,7.27 -3.898,6.685 -4.16,6.079 -3.13,5.998 -2.1,6.038 -1.091,5.957 -0.828,5.654 -0.525,5.311 -0.404,4.928 L -2.968,4.725 -4.189,2.613 -2.528,2.979 c 0,0 1.293,0.537 2.65,1.06 C 0.363,3.716 0.505,3.373 0.605,2.989 L -2.16,1.879 -4.624,1.353 C -4.988,0.949 -5.19,0.485 -5.473,0.061 -3.272,0.465 -1.13,1.171 1.091,1.616 2.08,-1.716 1.515,-5.473 -0.283,-8.279 -6.28,-9.794 -12.642,-7.875 -18.841,-8.704 l -1.798,-0.222 c -1.272,1.555 -1.918,3.453 -2.261,5.432 -0.303,2.162 -0.061,4.504 0.727,6.422 0.179,0.027 2.915,0.271 2.915,0.271 l -1.683,2.032 c 0.061,0.343 0.363,0.605 0.586,0.888 0.877,-0.918 2.524,-2.787 2.524,-2.787 l 0.929,0.081 -2.889,3.292 c 0.283,0.444 0.768,0.909 1.192,1.211 l 2.444,-0.444 c 0,0 -0.021,1.313 0.02,2.04 0.505,0.282 1.07,0.524 1.615,0.626 0.486,-0.868 0.849,-1.798 1.374,-2.666 0.625,1.01 1.171,2.141 1.736,3.231 0.061,0.041 0.182,0.081 0.263,0.021 z" />
      </g>
      <g
         style="fill:#FFFFFF"
         transform="translate(96.0673,717.5224)"
         id="g3934">
        <path
           inkscape:connector-curvature="0"
           id="path3936"
           style="fill:#FFFFFF;fill-opacity:1;fill-rule:nonzero;stroke:none"
           d="m 0,0 c -0.282,-0.081 -0.485,-0.343 -0.625,-0.585 -0.95,-2.02 -1.031,-4.201 -0.788,-6.523 0.222,-0.97 0.283,-2.02 1.03,-2.747 0.222,-0.141 0.505,0.061 0.707,0.202 C 2,-7.088 1.495,-3.251 0.566,-0.484 0.404,-0.323 0.324,0.061 0,0 m 8.462,-0.484 c -0.303,-1.434 -0.222,-2.707 0.06,-4.1 0.101,-0.182 0.162,-0.505 0.444,-0.484 0.546,0.322 1.212,0.444 1.657,0.989 0.908,1.434 -0.162,2.989 -0.848,4.241 C 9.25,0.505 8.643,0.021 8.462,-0.484 M -1.615,9.875 -1.474,9.512 -1.413,1.757 C -1.11,1.191 -0.767,2.08 -0.383,2.12 0.748,2.504 2.06,2.08 2.868,1.172 4.443,-0.504 4.686,-2.645 5.069,-4.827 l 0.061,0.061 c 0.242,2.504 0.747,5.15 3.029,6.523 1.191,0.727 2.948,0.647 4.099,-0.02 1.414,-1.252 2.545,-2.807 2.484,-4.726 0,-0.545 -0.02,-1.01 -0.181,-1.474 -1.677,-0.808 -3.474,-1.393 -5.19,-2.12 -0.405,-0.303 -0.061,-0.808 0,-1.151 0.282,-0.707 0.646,-1.696 1.534,-1.838 0.485,-0.162 1.192,-0.465 1.656,-0.04 0.525,0.484 0.121,1.918 1.293,1.555 0.464,-0.101 0.888,-0.343 1.13,-0.788 0.303,-1.353 -0.302,-2.604 -0.949,-3.635 -1.191,-1.03 -2.847,-1.212 -4.382,-1.009 -2.989,0.605 -4.059,3.776 -4.463,6.401 -0.242,-2.403 -0.383,-5.311 -3.029,-6.28 -1.615,-0.445 -3.433,-0.121 -4.564,1.03 -0.141,0.201 -0.181,0.525 -0.464,0.625 -0.667,-0.019 -0.667,-0.767 -1.01,-1.171 -0.424,-0.262 -0.869,-0.666 -1.413,-0.505 -0.202,0.101 -0.324,0.324 -0.445,0.485 -0.565,-0.626 -1.393,-0.424 -2.16,-0.464 l -3.05,0.04 c -0.343,0.06 -0.707,0.283 -0.788,0.646 -0.06,0.363 0.324,0.526 0.566,0.646 0.283,0.485 0.464,1.01 0.404,1.635 -0.101,2.667 -0.323,5.372 -0.747,7.917 -0.162,0.525 -0.303,1.131 -0.768,1.474 -0.343,0.121 -0.586,-0.141 -0.808,-0.303 l -0.262,-0.424 0.02,-9.35 c 0.121,-0.444 0.303,-0.949 0.808,-1.11 0.121,-0.162 0.141,-0.405 0.06,-0.586 -0.565,-0.828 -1.736,-0.425 -2.524,-0.525 -0.989,0.141 -2.564,-0.404 -3.231,0.545 -0.081,0.243 -0.02,0.525 0.242,0.646 0.485,0.121 0.606,0.668 0.748,1.051 l -0.081,9.774 c -0.162,0.343 -0.545,0.545 -0.909,0.565 -0.424,-0.02 -0.747,-0.404 -0.969,-0.727 -0.445,-0.808 -0.182,-1.717 -0.242,-2.665 l 0.08,-7.028 c -0.02,-0.606 0.586,-0.788 0.849,-1.152 0.08,-0.363 -0.162,-0.665 -0.445,-0.847 -1.676,-0.304 -3.11,-0.081 -4.806,-0.142 -0.384,0.08 -0.828,0.101 -1.05,0.505 -0.081,0.162 -0.142,0.445 0.04,0.586 0.364,0.181 0.727,0.465 0.808,0.889 l 0.101,0.524 -0.101,9.391 c -0.101,0.747 -1.252,0.666 -1.05,1.474 0.545,0.666 1.434,0.787 2.181,1.13 0.686,0.223 1.353,0.505 1.999,0.849 0.485,0.02 1.091,0.101 1.313,-0.404 0,-0.363 -0.142,-0.869 0.242,-1.05 0.566,0.04 0.667,0.727 1.131,1.009 0.909,0.768 2.464,0.607 3.453,0.142 0.485,-0.283 0.666,-0.767 1.03,-1.151 0.646,0 0.727,0.808 1.191,1.11 0.889,0.566 2.323,0.404 3.171,-0.141 1.535,-1.252 1.535,-3.271 1.979,-5.028 0.364,-2.363 0.687,-4.746 0.646,-7.27 0.081,-0.485 0.061,-1.273 0.687,-1.433 l 0.141,-0.143 0.101,0.203 -0.182,17.993 c -0.02,0.686 -0.464,1.232 -0.908,1.676 -0.081,0.222 0,0.444 0.141,0.606 0.99,0.949 2.343,1.01 3.494,1.636 0.363,0.444 1.211,0.525 1.575,0.06" />
      </g>
      <g
         style="fill:#FFFFFF"
         transform="translate(154.7122,717.482)"
         id="g3938">
        <path
           inkscape:connector-curvature="0"
           id="path3940"
           style="fill:#FFFFFF;fill-opacity:1;fill-rule:nonzero;stroke:none"
           d="m 0,0 c -0.364,-0.101 -0.444,-0.485 -0.586,-0.768 -0.484,-1.817 -0.889,-3.857 -0.606,-5.835 0.262,-1.131 0.323,-2.363 1.273,-3.212 0.221,-0.101 0.525,-0.12 0.686,0.122 1.191,2.262 1.05,5.19 0.484,7.694 C 0.969,-1.272 0.848,-0.303 0,0 M 5.796,9.794 5.856,8.886 6.038,-9.996 c 0,-0.222 0.161,-0.424 0.364,-0.505 0.201,-0.081 0.544,-0.101 0.585,-0.404 0.06,-0.323 -0.021,-0.646 -0.203,-0.888 -1.09,-0.606 -2.261,-0.97 -3.412,-1.374 -0.546,-0.081 -1.111,-0.484 -1.636,-0.121 -0.303,0.242 0.222,0.707 -0.262,0.848 -0.485,-0.302 -0.828,-0.928 -1.393,-1.07 -1.253,-0.242 -2.505,0.283 -3.433,1.13 -1.999,2.283 -1.859,5.857 -1.414,8.806 0.222,1.999 0.989,3.857 2.342,5.331 0.646,0.626 1.555,0.808 2.464,0.666 0.484,-0.08 0.767,-0.464 1.172,-0.727 0.1,0.02 0.201,0.081 0.221,0.182 l -0.02,4.423 c -0.141,0.828 -1.958,1.03 -1.009,2.12 0.363,0.222 0.888,0.04 1.271,0.243 1.151,0.646 2.424,1.05 3.615,1.635 0.223,-0.081 0.445,-0.242 0.506,-0.505" />
      </g>
      <g
         style="fill:#FFFFFF"
         transform="translate(131.0847,712.1109)"
         id="g3942">
        <path
           inkscape:connector-curvature="0"
           id="path3944"
           style="fill:#FFFFFF;fill-opacity:1;fill-rule:nonzero;stroke:none"
           d="m 0,0 c -1.455,-0.829 -1.05,-2.666 -1.091,-4.039 0.141,-0.545 0.303,-1.253 0.949,-1.454 0.505,-0.162 1.03,0 1.333,0.404 C 1.252,-3.433 1.09,-1.656 0.949,0.081 0.767,0.484 0.242,0.242 0,0 m 16.518,5.896 c 0.485,-0.767 0.748,-1.595 0.93,-2.484 0.484,-2.847 0.907,-5.775 1.07,-8.704 0.02,-0.363 0.101,-0.726 0.302,-1.029 0.242,-0.202 0.606,-0.243 0.606,-0.606 0,-0.344 -0.201,-0.586 -0.484,-0.727 -1.455,-0.263 -3.13,-0.121 -4.665,-0.121 -0.323,0.06 -0.686,0.242 -0.808,0.585 -0.06,0.243 -0.02,0.566 0.263,0.667 0.605,0.242 0.565,0.928 0.686,1.453 0.041,2.908 -0.606,5.837 -1.414,8.563 -0.12,0.324 -0.342,0.686 -0.686,0.869 -0.262,0.08 -0.565,-0.041 -0.646,-0.263 l -0.081,-0.364 0.121,-9.41 c -0.02,-0.646 0.647,-0.768 0.868,-1.252 0.062,-0.344 -0.262,-0.606 -0.504,-0.748 -1.434,-0.262 -3.231,-0.14 -4.705,-0.1 -0.324,0.06 -0.688,0.283 -0.787,0.626 C 6.441,-7.25 6.22,-7.513 6.038,-7.675 5.493,-8.119 4.806,-8.159 4.159,-8.119 3.413,-7.957 2.888,-7.432 2.282,-6.927 H 1.918 c -1.132,-1.091 -2.807,-1.717 -4.301,-1.05 -1.252,0.383 -2.403,1.575 -2.565,2.907 -0.323,1.778 -0.202,3.797 1.293,4.948 1.171,1.273 2.686,1.757 4.18,2.262 0.323,0.646 0.261,1.535 0.06,2.222 C 0.383,4.785 0.242,5.25 -0.243,5.472 L -1.616,5.593 C -1.757,5.573 -1.919,5.513 -1.959,5.351 -1.818,4.988 -1.333,4.947 -1.232,4.523 -1.111,3.917 -1.111,3.109 -1.595,2.645 -2.302,2.2 -3.433,1.999 -4.16,2.544 -4.786,3.049 -4.948,3.756 -4.948,4.523 -4.969,5.755 -3.877,6.643 -2.868,7.047 -1.414,7.532 0.141,7.471 1.716,7.29 2.746,7.168 3.676,6.502 4.119,5.533 4.664,4.079 4.826,2.443 5.008,0.848 5.149,-0.97 5.23,-2.908 5.331,-4.746 c 0.04,-0.202 0.141,-0.384 0.343,-0.465 0.323,0.04 0.747,0 0.788,-0.384 0.141,-0.323 0.221,-0.706 0.221,-1.029 0.304,0.04 0.647,0.283 0.748,0.606 L 7.613,-5.413 7.512,4.099 C 7.451,4.887 5.472,5.23 6.865,6.017 c 1.131,0.546 2.323,0.969 3.434,1.576 0.363,0.04 0.808,0.04 1.111,-0.202 0.222,-0.283 0.06,-0.687 0.322,-0.949 0.364,0.141 0.364,0.544 0.647,0.787 0.505,0.444 1.151,0.727 1.878,0.525 0.909,-0.323 1.737,-1.009 2.261,-1.858" />
      </g>
      <g
         style="fill:#FFFFFF"
         transform="translate(188.8808,708.8589)"
         id="g3946">
        <path
           inkscape:connector-curvature="0"
           id="path3948"
           style="fill:#FFFFFF;fill-opacity:1;fill-rule:nonzero;stroke:none"
           d="m 0,0 c -0.748,-1.01 -1.717,-2.04 -2.807,-2.766 -5.655,0.08 -10.845,1.615 -16.358,1.878 -0.181,0.161 -0.363,0.343 -0.423,0.585 4.301,0.748 8.663,0.323 12.923,0.061 2.222,-0.101 4.565,0.04 6.685,0.443 z" />
      </g>
      <g
         style="fill:#FFFFFF"
         transform="translate(180.419,706.1733)"
         id="g3950">
        <path
           inkscape:connector-curvature="0"
           id="path3952"
           style="fill:#FFFFFF;fill-opacity:1;fill-rule:nonzero;stroke:none"
           d="m 0,0 c 1.635,-0.182 3.291,-0.323 4.928,-0.525 -3.413,-2.383 -8.847,-2.423 -12.379,-0.344 -0.97,0.606 -1.999,1.253 -2.767,2.162 0.04,0.12 0.242,0.019 0.363,0.08 l 2.342,-0.202 z" />
      </g>
    </g>
  </g>
</svg>
